<?xml version="1.0" encoding="UTF-8" standalone="no"?>
<svg
   xmlns:dc="http://purl.org/dc/elements/1.1/"
   xmlns:cc="http://creativecommons.org/ns#"
   xmlns:rdf="http://www.w3.org/1999/02/22-rdf-syntax-ns#"
   xmlns:svg="http://www.w3.org/2000/svg"
   xmlns="http://www.w3.org/2000/svg"
   xmlns:sodipodi="http://sodipodi.sourceforge.net/DTD/sodipodi-0.dtd"
   xmlns:inkscape="http://www.inkscape.org/namespaces/inkscape"
   id="Layer_1"
   space="preserve"
   sodipodi:version="0.32"
   viewBox="0 0 80.999998 81"
   version="1.1"
   sodipodi:docname="config_sc.svg"
   width="81"
   height="81"
   inkscape:version="0.92.4 (5da689c313, 2019-01-14)">
  <defs
     id="defs99">
    <linearGradient
       id="linearGradient1722"
       y2="37.407001"
       gradientUnits="userSpaceOnUse"
       y1="33.98"
       gradientTransform="matrix(1.4408963,0,0,1.5605911,-17.496939,-11.100584)"
       x2="46.952"
       x1="40.585999"
       inkscape:collect="always">
      <stop
         id="stop4729"
         style="stop-color:#eefb11"
         offset="0" />
      <stop
         id="stop4730"
         style="stop-color:#fbcd11"
         offset="1" />
    </linearGradient>
    <linearGradient
       id="linearGradient1719"
       y2="53.925999"
       gradientUnits="userSpaceOnUse"
       y1="20.797001"
       gradientTransform="matrix(1.4400115,0,0,1.5616408,-17.496939,-11.100584)"
       x2="62.643002"
       x1="24.698999"
       inkscape:collect="always">
      <stop
         id="stop4831"
         style="stop-color:#000000"
         offset="0" />
      <stop
         id="stop4832"
         style="stop-color:#000000;stop-opacity:0"
         offset="1" />
    </linearGradient>
  </defs>
  <sodipodi:namedview
     id="base"
     bordercolor="#666666"
     borderopacity="1.0"
     pagecolor="#ffffff"
     showgrid="false"
     inkscape:zoom="3.4543831"
     inkscape:cx="110.15402"
     inkscape:cy="73.489836"
     inkscape:window-width="1920"
     inkscape:window-height="1017"
     inkscape:window-x="-8"
     inkscape:window-y="-8"
     inkscape:window-maximized="1"
     inkscape:current-layer="Layer_1" />
  <g
     id="g5"
     transform="translate(0.38541852,0.32791909)">
    <radialGradient
       r="39.748001"
       cx="40.189999"
       cy="40.039001"
       gradientUnits="userSpaceOnUse"
       id="XMLID_9_">
      <stop
         offset="0"
         stop-color="#FFFA5F"
         id="stop8" />
      <stop
         offset="1"
         stop-color="#B53A00"
         id="stop10" />
    </radialGradient>
    <path
       inkscape:connector-curvature="0"
       style="fill:url(#XMLID_9_)"
       d="m 75.554,34.021 c -2.276,0 -4.553,0.027 -6.829,0.112 -0.542,-2.69 -1.499,-5.292 -2.812,-7.7 -0.675,-1.238 -1.904,-1.868 -0.712,-2.955 0.817,-0.742 1.614,-1.499 2.405,-2.266 1.534,-1.484 4.518,-3.664 3.053,-6.103 -1.456,-2.42 -5.768,-7.489 -8.824,-5.3 -1.966,1.408 -3.637,3.505 -5.285,5.268 -1.109,1.191 -6.079,-2.019 -7.94,-2.585 -1.383,-0.422 -2.669,-0.005 -2.585,-1.65 0.061,-1.145 0.091,-2.295 0.11,-3.443 0.029,-1.766 0.526,-4.638 -0.967,-6.007 -1.626,-1.49 -7.904,-1.317 -9.775,-0.355 -1.751,0.897 -1.512,3.338 -1.502,4.962 0.006,1.212 0.022,2.421 0.054,3.634 0.045,1.748 0.608,1.887 -1.297,2.326 -2.665,0.613 -5.243,1.587 -7.643,2.895 -1.635,0.891 -1.323,0.469 -2.458,-0.749 -1.08,-1.159 -2.185,-2.29 -3.303,-3.409 -3.588,-3.587 -6.938,0.866 -9.342,3.715 -1.482,1.756 -0.86,3.437 0.659,4.958 0.94,0.937 1.885,1.869 2.839,2.788 1.814,1.749 1.494,1.547 0.268,3.676 -1.272,2.204 -2.236,4.583 -2.856,7.05 -0.538,2.143 -4.221,1.138 -6.315,1.138 -4.88,0 -3.97,4.336 -4.013,7.907 -0.059,5.062 4.037,4.401 8.065,4.328 1.823,-0.035 2.063,-0.608 2.651,1.292 0.41,1.33 0.923,2.629 1.53,3.881 0.603,1.245 1.299,2.446 2.078,3.589 1.181,1.734 -0.103,1.912 -1.475,3.219 -1.45,1.377 -4.245,3.279 -4.357,5.478 -0.093,1.836 1.97,3.238 3.11,4.376 1.139,1.14 2.542,3.212 4.384,3.115 2.411,-0.124 4.662,-3.483 6.191,-5.085 0.67,-0.705 1.336,-1.413 1.987,-2.132 1.457,0.819 2.987,1.518 4.56,2.083 1.611,0.579 3.271,1.021 4.955,1.323 -0.117,1.381 -0.179,2.767 -0.216,4.15 -0.056,2.043 -0.794,5.784 0.937,7.375 1.45,1.33 4.274,0.718 6.046,0.755 1.539,0.032 3.713,0.273 4.658,-1.268 1.423,-2.325 0.567,-6.595 0.474,-9.202 -0.064,-1.77 -0.613,-1.812 1.316,-2.313 1.839,-0.477 3.633,-1.124 5.351,-1.935 2.115,-0.996 2.126,-1.662 3.718,0.104 1.083,1.199 2.2,2.366 3.335,3.518 1.744,1.772 3.65,3.677 5.99,1.703 1.623,-1.372 4.599,-3.696 5.214,-5.803 0.738,-2.532 -2.989,-5.036 -4.515,-6.501 -1.354,-1.296 -2.863,-1.679 -1.729,-3.405 0.967,-1.472 1.793,-3.041 2.464,-4.67 0.505,-1.235 0.921,-2.506 1.243,-3.803 1.455,0.095 2.914,0.143 4.371,0.168 2.102,0.035 5.828,0.633 6.562,-2.087 0.995,-3.7 1.15,-10.16 -3.828,-10.16 M 39.625,51.185 c -6.418,0 -12.192,-5.092 -12.192,-11.666 0,-6.574 5.774,-11.669 12.192,-11.669 6.417,0 12.191,5.095 12.191,11.669 0,6.574 -5.774,11.666 -12.191,11.666"
       id="path12" />
    <linearGradient
       x1="-243.97"
       x2="-243.00999"
       gradientTransform="matrix(776.01,550.01,550.01,-776.01,-65411,493080)"
       y1="462.69"
       gradientUnits="userSpaceOnUse"
       y2="462.69"
       id="XMLID_10_">
      <stop
         offset="0"
         stop-color="#fff"
         id="stop15" />
      <stop
         offset="1"
         id="stop17" />
    </linearGradient>
    <path
       inkscape:connector-curvature="0"
       style="fill:url(#XMLID_10_)"
       d="m 40.02,1.119 c 1.342,-0.021 2.861,-0.244 4.142,0.22 2.155,0.786 1.528,4.293 1.499,6.013 -0.015,0.926 -0.675,4.097 -0.195,4.848 0.493,0.764 5.582,1.636 6.676,2.136 4.161,1.896 3.3,2.605 6.403,-0.611 1.61,-1.667 4.146,-5.481 6.721,-3.489 1.604,1.245 5.959,5 5.183,7.001 -0.788,2.021 -3.233,3.728 -4.782,5.171 -1.765,1.643 -2.033,1.13 -0.824,3.115 1.396,2.293 2.453,4.79 3.113,7.395 0.364,1.445 -0.05,1.712 1.228,1.691 2.456,-0.041 6.228,-0.781 8.56,0.242 2.126,0.935 1.368,5.531 1.345,7.574 -0.058,5.104 -7.307,3.408 -10.806,3.189 0.094,0.007 -4.102,8.96 -4.795,9.93 -0.332,0.46 4.441,4.563 5.059,5.154 2.984,2.876 1.705,4.426 -0.914,7.058 -3.645,3.664 -4.76,3.333 -8.414,-0.44 -1.295,-1.342 -2.573,-2.708 -3.769,-4.137 -0.315,-0.378 -3.632,1.677 -4.223,1.922 -0.892,0.371 -5.375,1.115 -5.759,1.735 -0.604,0.979 0.188,4.836 0.202,6.026 0.057,5.148 -0.54,6.328 -5.647,6.328 -1.347,0 -2.843,0.249 -4.131,-0.22 -2.416,-0.877 -1.523,-5.442 -1.47,-7.35 0.023,-0.906 0.706,-3.869 0.259,-4.623 -0.343,-0.576 -5.067,-1.279 -5.934,-1.611 -0.475,-0.183 -4.083,-2.118 -4.256,-1.937 -0.92,0.96 -1.841,1.919 -2.764,2.88 -1.195,1.247 -3.462,4.46 -5.393,4.402 -1.694,-0.028 -6.012,-4.56 -6.7,-6.104 -1.687,-3.793 6.08,-5.67 6.633,-8.429 0.026,-0.129 -5.966,-10.475 -5.188,-10.486 -2.17,0.029 -4.418,0.248 -6.581,0.092 -4.209,0 -3.547,-3.653 -3.52,-6.762 -0.095,-4.463 2.185,-4.571 5.932,-4.494 1.292,0.025 2.581,0.053 3.873,0.076 0.268,0.007 1.407,-4.579 1.641,-5.162 0.81,-2.009 1.874,-3.878 3.108,-5.654 0.264,-0.379 -1.166,-1.416 -1.448,-1.689 -2.031,-1.977 -6.291,-4.753 -3.534,-7.726 1.268,-1.364 3.95,-4.821 5.796,-4.821 2.263,0 5.058,4.079 6.444,5.533 1.833,1.919 3.836,-0.661 6.121,-1.526 2.382,-0.901 5.611,-0.221 5.563,-2.985 C 34.438,8.627 34.235,6.586 34.369,4.625 34.367,0.875 37.056,1.071 40.02,1.119 m 2.058,-0.985 c -2.227,0 -5.925,-0.664 -7.59,0.958 -1.88,1.863 -1.023,6.483 -0.983,8.861 0.034,2.175 -1.824,1.699 -3.727,2.328 -0.885,0.292 -5.713,2.788 -6.054,2.429 -1.747,-1.838 -4.048,-5.273 -6.618,-5.98 -2.515,-0.696 -4.577,2.296 -6.14,3.909 -3.467,3.332 -2.483,5.371 0.59,8.359 0.953,0.925 1.903,1.853 2.859,2.775 -1.529,2.237 -2.735,4.69 -3.561,7.271 -0.822,2.569 -0.415,2.617 -2.984,2.568 -1.486,-0.029 -3.047,-0.185 -4.532,10e-4 -3.906,0.49 -3.292,4.373 -3.316,7.35 -0.037,4.914 1.913,5.847 6.39,5.778 1.352,-0.022 2.703,-0.047 4.055,-0.064 0.674,2.526 1.708,4.952 3.061,7.191 0.83,1.379 1.979,1.715 0.622,2.959 -0.965,0.884 -1.914,1.789 -2.851,2.707 -1.384,1.356 -3.462,3.169 -2.593,5.361 0.708,1.791 4.79,5.876 6.581,6.586 2.8,1.109 5.344,-2.629 6.999,-4.35 0.824,-0.857 1.642,-1.717 2.473,-2.566 2.378,1.295 4.927,2.27 7.563,2.896 1.84,0.438 1.297,0.504 1.218,2.173 -0.056,1.128 -0.086,2.257 -0.105,3.385 -0.035,2.094 -0.559,5.532 1.759,6.699 1.868,0.94 5.77,0.588 7.905,0.426 4.973,-0.383 3.567,-7.174 3.451,-10.605 -0.056,-1.669 -0.584,-1.798 1.212,-2.28 1.28,-0.346 2.54,-0.774 3.764,-1.279 1.223,-0.506 2.414,-1.09 3.563,-1.75 0.632,0.74 1.286,1.463 1.95,2.175 2.612,2.807 5.777,7.423 9.583,3.753 1.648,-1.589 4.888,-3.992 4.933,-6.323 0,-2.49 -3.372,-4.814 -4.993,-6.371 -1.254,-1.208 -2.244,-1.367 -1.246,-2.927 1.338,-2.097 2.4,-4.368 3.142,-6.741 1.148,-3.671 10.582,2.029 11.5,-4.033 0.328,-2.165 0.641,-7.604 -0.873,-9.139 -1.809,-1.855 -6.19,-1.037 -8.511,-0.998 -2.299,0.039 -1.812,-1.658 -2.553,-3.677 -0.678,-1.845 -3.457,-5.239 -2.072,-6.511 3.829,-3.514 7.837,-6.313 3.14,-10.799 -1.571,-1.618 -3.624,-4.599 -6.147,-3.913 -2.394,0.65 -4.579,3.82 -6.22,5.514 -1.487,1.538 -2.457,0.018 -4.272,-0.802 C 50.856,12.72 46.442,12.12 46.52,10.489 46.717,6.265 47.925,0.134 42.078,0.134"
       id="path19" />
    <linearGradient
       x1="-243.25"
       x2="-242.31"
       gradientTransform="matrix(0,-215,-215,0,102530,-52176)"
       y1="476.69"
       gradientUnits="userSpaceOnUse"
       y2="476.69"
       id="XMLID_11_">
      <stop
         offset="0"
         stop-color="#fff"
         id="stop22" />
      <stop
         offset="1"
         id="stop24" />
    </linearGradient>
    <path
       inkscape:connector-curvature="0"
       style="fill:url(#XMLID_11_)"
       d="m 26.958,39.519 c 0,15.738 25.333,15.738 25.333,0 0,-15.738 -25.333,-15.738 -25.333,0 m 0.956,0 c 0,-14.505 23.421,-14.505 23.421,0 0,14.505 -23.421,14.505 -23.421,0"
       id="path26" />
    <radialGradient
       r="21.1"
       cx="39.623001"
       cy="39.519001"
       gradientUnits="userSpaceOnUse"
       id="XMLID_12_">
      <stop
         offset="0"
         stop-color="#FFFA5F"
         id="stop29" />
      <stop
         offset=".3945"
         stop-color="#FEF85E"
         id="stop31" />
      <stop
         offset=".5366"
         stop-color="#FCF15B"
         id="stop33" />
      <stop
         offset=".6379"
         stop-color="#F7E655"
         id="stop35" />
      <stop
         offset=".7199"
         stop-color="#F1D54C"
         id="stop37" />
      <stop
         offset=".7901"
         stop-color="#E8BF42"
         id="stop39" />
      <stop
         offset=".8522"
         stop-color="#DEA334"
         id="stop41" />
      <stop
         offset=".9084"
         stop-color="#D18324"
         id="stop43" />
      <stop
         offset=".9583"
         stop-color="#C35F12"
         id="stop45" />
      <stop
         offset="1"
         stop-color="#B53A00"
         id="stop47" />
    </radialGradient>
    <path
       inkscape:connector-curvature="0"
       style="fill:url(#XMLID_12_)"
       d="m 39.625,19.257 c -11.218,0 -21.907,8.55 -21.907,20.262 0,11.713 10.685,20.262 21.907,20.262 11.221,0 21.903,-8.549 21.903,-20.262 0,-11.712 -10.686,-20.262 -21.903,-20.262 m 0,37.409 c -9.498,0 -18.542,-7.235 -18.542,-17.147 0,-9.914 9.044,-17.149 18.542,-17.149 9.496,0 18.542,7.233 18.542,17.149 0,9.914 -9.044,17.147 -18.542,17.147"
       id="path49" />
    <path
       style="fill:#ede0a3"
       inkscape:connector-curvature="0"
       d="m 14.503,28.834 c 0.839,-1.288 1.688,-2.568 2.587,-3.815 -1.349,-0.277 -2.197,2.837 -2.587,3.815 M 65.198,11.636 c -0.908,-3.603 -6.239,2.539 -7.148,3.517 -0.274,0.293 -1.843,2.415 -2.334,2.27 -2.959,-2.188 -6.414,-3.661 -9.998,-4.455 -0.649,2.192 5.004,2.803 6.675,3.64 1.291,0.644 2.56,2.617 3.808,1.468 2.068,-1.903 3.955,-4.08 6.198,-5.781 0.541,-0.409 3.08,-0.642 2.906,0.183 -0.036,-0.281 -0.072,-0.561 -0.107,-0.842 m -40.632,5.871 c 1.995,-1.275 4.208,-2.171 6.519,-2.678 1.566,-0.344 3.701,0.102 3.042,-2.129 -1.811,0.338 -10.188,2.292 -9.561,4.807"
       id="path51" />
    <path
       style="fill:#ede0a3"
       inkscape:connector-curvature="0"
       d="m 44.165,2.194 c 0,1.417 -8.603,1.417 -8.603,0 0,-1.415 8.603,-1.415 8.603,0"
       id="path53" />
    <path
       style="fill:#b0833e"
       inkscape:connector-curvature="0"
       d="m 39.866,77.54 c -0.405,0 -4.303,-0.079 -4.303,0.774 0,1.166 8.605,1.166 8.605,0 0,-0.854 -3.897,-0.774 -4.302,-0.774"
       id="path55" />
    <path
       style="fill:#b0833e"
       inkscape:connector-curvature="0"
       d="m 6.647,44.001 c -0.407,0 -4.303,-0.08 -4.303,0.774 0,1.157 8.603,1.156 8.603,0 0,-0.852 -3.895,-0.774 -4.3,-0.774"
       id="path57" />
    <path
       style="fill:#b0833e"
       inkscape:connector-curvature="0"
       d="m 73.403,44.001 c -0.405,0 -4.303,-0.078 -4.303,0.774 0,1.156 8.604,1.156 8.604,0 0.001,-0.852 -3.896,-0.774 -4.301,-0.774"
       id="path59" />
    <path
       style="fill:#b0833e"
       inkscape:connector-curvature="0"
       d="m 10.601,64.151 c -0.783,0 1.358,2.592 1.411,2.651 0.873,0.984 2.873,3.532 4.382,3.532 0.021,0.015 -1.194,-2.4 -1.469,-2.707 -0.865,-0.97 -2.834,-3.477 -4.324,-3.476"
       id="path61" />
    <path
       style="fill:#b0833e"
       inkscape:connector-curvature="0"
       d="m 56.967,63.198 c -0.349,0 4.538,7.526 5.932,6.131 0.9,-0.895 -4.788,-6.131 -5.932,-6.131"
       id="path63" />
    <path
       style="fill:#ede0a3"
       inkscape:connector-curvature="0"
       d="m 16.102,10.062 c 0.634,0.633 -5.617,6.887 -6.253,6.252 -0.631,-0.633 5.62,-6.884 6.253,-6.252"
       id="path65" />
    <path
       style="fill:#a58554"
       inkscape:connector-curvature="0"
       d="m 69.551,16.887 c -1.185,0 -6.773,5.651 -6.162,6.284 1.112,1.115 6.187,-6.284 6.162,-6.284"
       id="path67" />
    <path
       style="fill:#b0833e"
       inkscape:connector-curvature="0"
       d="m 69.869,64.044 c -1.185,0 -6.759,5.687 -6.161,6.285 1.178,1.122 6.152,-6.285 6.161,-6.285"
       id="path69" />
    <path
       style="fill:#b0833e"
       inkscape:connector-curvature="0"
       d="m 22.547,64.044 c -1.113,0 -2.783,2.063 -3.461,2.74 -0.281,0.279 -2.785,3.553 -2.693,3.55 1.376,1.103 6,-6.29 6.154,-6.29"
       id="path71" />
    <path
       style="fill:#937342"
       inkscape:connector-curvature="0"
       d="m 16.512,69.836 c -0.044,0.164 -0.084,0.329 -0.126,0.493 0.412,0.414 -0.242,-1.411 0.126,-0.493"
       id="path73" />
    <path
       style="fill:#ede0a3"
       inkscape:connector-curvature="0"
       d="m 10.526,35.296 c 0,0.81 -7.441,-0.318 -7.802,0.754 -0.223,0.655 -0.294,6.703 -0.742,6.655 -1.033,-0.11 -0.136,-6.064 -0.047,-6.838 0.214,-1.91 8.591,-1.166 8.591,-0.571"
       id="path75" />
    <path
       style="fill:#ede0a3"
       inkscape:connector-curvature="0"
       d="m 14.174,60.454 c -0.216,0.217 -2.765,2.866 -3.212,2.421 -0.589,-0.59 5.042,-6.224 5.635,-5.632 0.444,0.443 -2.206,2.994 -2.423,3.211"
       id="path77" />
    <path
       style="fill:#ede0a3"
       inkscape:connector-curvature="0"
       d="m 77.624,35.417 c 0,0.718 -8.96,0.718 -8.96,0 0,-0.719 8.96,-0.719 8.96,0"
       id="path79" />
    <path
       style="fill:#7d6135"
       inkscape:connector-curvature="0"
       d="m 61.051,44.833 c -4.763,14.598 -25.329,20.1 -36.561,9.347 0,2.249 4.75,4.944 6.313,5.771 5.457,2.885 11.905,2.881 17.651,0.854 7.262,-2.558 11.439,-8.577 12.597,-15.972 m 0.278,-1.198 c -0.186,0.374 -0.278,0.772 -0.278,1.197 -0.162,0.499 0.435,-1.197 0.278,-1.197"
       id="path81" />
    <path
       style="fill:#836432"
       inkscape:connector-curvature="0"
       d="m 54.415,54.466 c -5.016,4.107 -12.059,5.937 -18.453,5.032 6.517,1.017 13.396,-0.748 18.453,-5.032"
       id="path83" />
    <path
       style="fill:#faecac"
       inkscape:connector-curvature="0"
       d="m 21.621,36.65 c 0,-5.568 4.938,-10.957 9.665,-13.104 5.146,-2.338 10.859,-2.378 15.962,0.063 0.655,0.313 8.122,4.651 7.18,5.866 0.249,-0.322 -4.717,-3.989 -5.088,-4.199 -4.707,-2.678 -10.544,-2.769 -15.627,-1.169 -4.67,1.468 -12.092,7.034 -12.092,12.543"
       id="path85" />
    <path
       style="fill:#faecac"
       inkscape:connector-curvature="0"
       d="m 17.644,36.514 c 0,-6.791 6.518,-13.377 12.209,-15.916 6.2,-2.766 13.096,-2.903 19.226,0.088 2.27,1.109 4.428,2.549 6.243,4.313 0.097,0.097 1.952,2.339 1.617,2.353 -0.392,0.015 -1.301,-1.387 -1.532,-1.638 -1.341,-1.454 -2.865,-2.736 -4.558,-3.763 -5.68,-3.437 -12.859,-3.537 -19.021,-1.373 -4.974,1.745 -9.08,5.234 -11.673,9.811 -0.862,1.519 -2.511,4.575 -2.511,6.125"
       id="path87" />
    <path
       style="fill:#9e8860"
       inkscape:connector-curvature="0"
       d="m 58.153,39.915 c 0.047,0 -1.07,3.952 -1.166,4.185 -1.226,3.045 -3.232,5.755 -5.869,7.727 -8.563,6.4 -20.332,4.829 -27.136,-3.096 9.196,13.329 33.627,8.3 34.174,-8.815"
       id="path89" />
    <path
       style="fill:#c4a572"
       inkscape:connector-curvature="0"
       d="m 52.999,51.396 c -0.521,0.501 -1.07,0.971 -1.648,1.407 0.58,-0.432 1.131,-0.9 1.648,-1.407 M 23.581,48.351 c -0.239,0 3.056,3.445 3.315,3.637 -0.566,-0.495 -2.745,-3.637 -3.315,-3.637"
       id="path91" />
  </g>
  <metadata
     id="metadata96">
    <rdf:RDF>
      <cc:Work>
        <dc:format>image/svg+xml</dc:format>
        <dc:type
           rdf:resource="http://purl.org/dc/dcmitype/StillImage" />
        <cc:license
           rdf:resource="http://creativecommons.org/publicdomain/zero/1.0/" />
        <dc:publisher>
          <cc:Agent
             rdf:about="http://openclipart.org/">
            <dc:title>Openclipart</dc:title>
          </cc:Agent>
        </dc:publisher>
        <dc:title></dc:title>
        <dc:date>2010-03-25T20:40:35</dc:date>
        <dc:description>Drawing by Francesco 'Architetto' Rollandin. From OCAL 0.18 release.</dc:description>
        <dc:source>http://openclipart.org/detail/34117/architetto----ruota-dentata-by-anonymous</dc:source>
        <dc:creator>
          <cc:Agent>
            <dc:title>Anonymous</dc:title>
          </cc:Agent>
        </dc:creator>
        <dc:subject>
          <rdf:Bag>
            <rdf:li>clip art</rdf:li>
            <rdf:li>clipart</rdf:li>
            <rdf:li>gears</rdf:li>
            <rdf:li>mechanic</rdf:li>
            <rdf:li>technic</rdf:li>
            <rdf:li>technology</rdf:li>
            <rdf:li>tools</rdf:li>
          </rdf:Bag>
        </dc:subject>
      </cc:Work>
      <cc:License
         rdf:about="http://creativecommons.org/publicdomain/zero/1.0/">
        <cc:permits
           rdf:resource="http://creativecommons.org/ns#Reproduction" />
        <cc:permits
           rdf:resource="http://creativecommons.org/ns#Distribution" />
        <cc:permits
           rdf:resource="http://creativecommons.org/ns#DerivativeWorks" />
      </cc:License>
    </rdf:RDF>
  </metadata>
  <path
     inkscape:connector-curvature="0"
     sodipodi:nodetypes="cccccccccccc"
     d="m 57.316061,19.625377 -23.723024,24.16689 12.788241,0.446874 -20.289034,20.163063 8.592473,0.160454 -14.238312,15.730373 34.405881,-19.186863 -12.807733,0.135 25.924375,-20.70141 -14.022375,-0.03451 23.040723,-21.524677 z"
     style="display:block;opacity:0.78873004;fill:url(#linearGradient1719);fill-rule:evenodd;stroke-width:0"
     id="path4829" />
  <path
     inkscape:connector-curvature="0"
     sodipodi:nodetypes="cccccccccccc"
     d="M 56.101419,17.750919 32.378395,41.917823 45.165134,42.364682 24.876101,62.52776 33.470075,62.6882 19.230261,78.418587 53.637644,59.231725 40.829909,59.366724 66.754284,38.665315 52.73041,38.630809 75.771134,17.106146 Z"
     style="display:block;fill:url(#linearGradient1722);fill-rule:evenodd;stroke:#ff8600;stroke-width:0.72599655pt"
     id="path4828" />
</svg>
