<?xml version="1.0" encoding="UTF-8" standalone="no"?>
<svg
   xmlns:dc="http://purl.org/dc/elements/1.1/"
   xmlns:cc="http://creativecommons.org/ns#"
   xmlns:rdf="http://www.w3.org/1999/02/22-rdf-syntax-ns#"
   xmlns:svg="http://www.w3.org/2000/svg"
   xmlns="http://www.w3.org/2000/svg"
   xmlns:sodipodi="http://sodipodi.sourceforge.net/DTD/sodipodi-0.dtd"
   xmlns:inkscape="http://www.inkscape.org/namespaces/inkscape"
   inkscape:version="1.0 (4035a4fb49, 2020-05-01)"
   sodipodi:docname="Logo_SIPLA.svg"
   viewBox="0 0 184 60.66666"
   height="60.66666"
   width="184"
   xml:space="preserve"
   id="svg4896"
   version="1.1"><metadata
     id="metadata4902"><rdf:RDF><cc:Work
         rdf:about=""><dc:format>image/svg+xml</dc:format><dc:type
           rdf:resource="http://purl.org/dc/dcmitype/StillImage" /><dc:title></dc:title></cc:Work></rdf:RDF></metadata><defs
     id="defs4900" /><sodipodi:namedview
     inkscape:document-rotation="0"
     inkscape:current-layer="g4904"
     inkscape:window-maximized="1"
     inkscape:window-y="0"
     inkscape:window-x="0"
     inkscape:cy="44.990373"
     inkscape:cx="94.706566"
     inkscape:zoom="4.5907913"
     showgrid="false"
     id="namedview4898"
     inkscape:window-height="1025"
     inkscape:window-width="1867"
     inkscape:pageshadow="2"
     inkscape:pageopacity="0"
     guidetolerance="10"
     gridtolerance="10"
     objecttolerance="10"
     borderopacity="1"
     bordercolor="#666666"
     pagecolor="#ffffff" /><g
     transform="matrix(1.3333333,0,0,1.3333333,0,2.7e-6)"
     inkscape:label="Logo_LIGA_PES_UFBA_R02vec"
     inkscape:groupmode="layer"
     id="g4904"><g
       transform="translate(0.08627523,-15.747407)"
       id="g3290"><path
         d="m 22.639536,23.973715 v 6.551717 q -2.550197,-1.140321 -4.975989,-1.720842 -2.425797,-0.58055 -4.582059,-0.58055 -2.861198,0 -4.2295947,0.787877 -1.368397,0.787849 -1.368397,2.446516 0,1.244008 0.9122652,1.948946 0.9329967,0.684181 3.3587945,1.181791 l 3.400261,0.684189 q 5.162595,1.036668 7.339589,3.151466 2.177,2.114799 2.177,6.012679 0,5.121099 -3.0478,7.629832 -3.027062,2.488013 -9.267787,2.488013 -2.9441261,0 -5.9089908,-0.559813 -2.9648601,-0.559787 -5.92972375,-1.658659 v -6.73831 q 2.96486365,1.575719 5.72239125,2.384324 2.7782628,0.787851 5.3491923,0.787851 2.612398,0 4.001528,-0.870776 1.389132,-0.87081 1.389132,-2.488035 0,-1.451316 -0.953734,-2.239192 -0.932995,-0.787835 -3.752725,-1.409847 L 9.1836263,41.078703 Q 4.539365,40.083505 2.383102,37.906509 0.247573,35.729498 0.247573,32.038961 q 0,-4.623526 2.985597,-7.111518 2.9855932,-2.487991 8.583583,-2.487991 2.550199,0 5.245525,0.393921 2.695331,0.373228 5.577258,1.140342 z"
         style="font-style:normal;font-variant:normal;font-weight:bold;font-stretch:normal;font-size:14.1111px;line-height:1.25;font-family:sans-serif;-inkscape-font-specification:'sans-serif Bold';letter-spacing:0px;word-spacing:0px;fill:#000000;fill-opacity:1;stroke:none;stroke-width:0.796155"
         id="path862" /><path
         sodipodi:nodetypes="ccccccc"
         d="m 78.598724,23.019987 h 7.98232 V 47.941436 H 100.0806 v 6.033379 H 78.598724 Z"
         style="font-style:normal;font-variant:normal;font-weight:bold;font-stretch:normal;font-size:14.1111px;line-height:1.25;font-family:sans-serif;-inkscape-font-specification:'sans-serif Bold';letter-spacing:0px;word-spacing:0px;fill:#000000;fill-opacity:1;stroke:none;stroke-width:0.796155"
         id="path868" /><path
         sodipodi:nodetypes="cccccccc"
         d="m 121.36643,30.276662 c -2.72784,7.90252 -5.4538,15.805626 -8.21038,23.698153 h -8.02378 l 11.46551,-30.954828 h 9.51659 l 11.46551,30.954828 h -8.02379 z"
         style="font-style:normal;font-variant:normal;font-weight:bold;font-stretch:normal;font-size:14.1111px;line-height:1.25;font-family:sans-serif;-inkscape-font-specification:'sans-serif Bold';letter-spacing:0px;word-spacing:0px;fill:#000000;fill-opacity:1;stroke:none;stroke-width:0.796155"
         id="path870" /><path
         inkscape:connector-curvature="0"
         id="path5004"
         style="fill:#62b92c;fill-opacity:1;fill-rule:nonzero;stroke:#000000;stroke-width:1.58792;stroke-miterlimit:4;stroke-dasharray:none;stroke-opacity:1"
         d="m 49.801631,34.368587 c -0.210354,-0.57236 -0.787604,-0.743572 -1.051768,-0.841416 h -0.09784 c -0.15165,-0.07336 -0.269057,-0.07336 -0.474519,-0.07336 h -9.250665 l 4.373399,-14.294252 0.03913,-0.09784 c 0.327761,-0.895222 0.171219,-1.545854 -0.513654,-1.966561 -0.249489,-0.171219 -0.518546,-0.210354 -0.782709,-0.210354 -0.670198,0 -1.032201,0.47941 -1.242556,0.689764 l -0.05871,0.112514 c -2.847112,3.189544 -5.713791,6.383984 -8.580472,9.651802 L 27.23019,32.88146 c -2.025266,2.289426 -4.109233,4.564186 -6.134496,6.917208 -0.362004,0.381565 -0.572361,1.125146 -0.420711,1.697506 0.210355,0.591926 0.787603,0.802278 1.149609,0.919687 l 0.112514,0.07336 c 0.15165,0.07827 0.249491,0.07827 0.45984,0.07827 h 8.521765 l -3.326523,13.222923 c -0.20546,0.802279 -0.415813,1.702402 -0.626167,2.563377 -0.09784,0.572359 0.264165,1.276801 0.684872,1.526292 0.210352,0.117411 0.420707,0.22992 0.670195,0.22992 0.210355,0 0.479411,-0.09784 0.689765,-0.171221 0.362004,-0.11741 0.513655,-0.362002 0.665305,-0.572352 l 17.522954,-20.4679 c 0.768037,-0.914787 1.550746,-1.814908 2.274755,-2.734595 0.308191,-0.474517 0.518545,-1.164286 0.308191,-1.756203 z" /><path
         d="m 47.478035,23.019987 h 13.248578 q 5.908988,0 9.060455,2.633158 3.172197,2.612379 3.172197,7.463966 0,4.872352 -3.172197,7.505459 -3.151467,2.612387 -9.060455,2.612387 h -5.266256 v 10.739858 h -7.982322 z m 7.982322,5.784617 v 8.645765 h 4.416196 q 2.322128,0 3.586857,-1.119593 1.26473,-1.140335 1.26473,-3.213665 0,-2.073307 -1.26473,-3.1929 -1.264729,-1.119607 -3.586857,-1.119607 z"
         style="font-style:normal;font-variant:normal;font-weight:bold;font-stretch:normal;font-size:14.1111px;line-height:1.25;font-family:sans-serif;-inkscape-font-specification:'sans-serif Bold';letter-spacing:0px;word-spacing:0px;fill:#000000;fill-opacity:1;stroke:none;stroke-width:0.796155"
         id="path866" /><path
         d="m 124.2441,42.37114 c -0.003,-0.136029 -0.11218,-0.214076 -0.16082,-0.253905 l -0.0206,-0.007 c -0.0268,-0.02649 -0.0515,-0.03501 -0.0948,-0.04994 l -1.95177,-0.671737 1.96071,-2.698336 0.0155,-0.0178 c 0.13415,-0.165081 0.14836,-0.313729 0.0344,-0.452218 -0.0403,-0.05424 -0.0942,-0.08204 -0.14987,-0.101219 -0.1414,-0.04866 -0.25259,0.02621 -0.31226,0.05531 l -0.0205,0.01949 c -0.83231,0.466214 -1.6691,0.932037 -2.51125,1.413341 l -1.44285,0.811345 c -0.59355,0.335975 -1.19843,0.664594 -1.7966,1.013987 -0.10409,0.05422 -0.20247,0.195831 -0.21203,0.327605 0.002,0.140164 0.10791,0.226461 0.17577,0.277519 l 0.0185,0.02365 c 0.0264,0.02753 0.0469,0.03463 0.0913,0.0499 l 1.79799,0.618811 -1.66205,2.548314 c -0.10159,0.154355 -0.21134,0.328991 -0.31824,0.495372 -0.0621,0.113656 -0.0375,0.288511 0.0337,0.371757 0.0358,0.04004 0.0721,0.07906 0.12471,0.09718 0.0444,0.01528 0.10824,0.01416 0.15796,0.01396 0.0849,0.0016 0.13467,-0.03907 0.18193,-0.07244 l 5.1834,-3.046044 c 0.22847,-0.137236 0.45899,-0.270315 0.67851,-0.411784 0.0995,-0.07774 0.19397,-0.207994 0.19256,-0.348158 z"
         style="fill:#62b92c;fill-opacity:1;fill-rule:nonzero;stroke:#000000;stroke-width:0.354322;stroke-miterlimit:4;stroke-dasharray:none;stroke-opacity:1"
         id="path5004-8"
         inkscape:connector-curvature="0" /></g></g></svg>
