<?xml version="1.0" encoding="UTF-8" standalone="no"?>
<svg
   xmlns:dc="http://purl.org/dc/elements/1.1/"
   xmlns:cc="http://creativecommons.org/ns#"
   xmlns:rdf="http://www.w3.org/1999/02/22-rdf-syntax-ns#"
   xmlns:svg="http://www.w3.org/2000/svg"
   xmlns="http://www.w3.org/2000/svg"
   xmlns:sodipodi="http://sodipodi.sourceforge.net/DTD/sodipodi-0.dtd"
   xmlns:inkscape="http://www.inkscape.org/namespaces/inkscape"
   xml:space="preserve"
   style="enable-background:new 0 0 184.3 34.1;"
   viewBox="0 0 184.3 34.1"
   y="0px"
   x="0px"
   sodipodi:docname="Logo_SIPLA_v2.svg"
   inkscape:version="1.0 (4035a4fb49, 2020-05-01)"
   id="svg4896"
   version="1.1"><metadata
   id="metadata81"><rdf:RDF><cc:Work
       rdf:about=""><dc:format>image/svg+xml</dc:format><dc:type
         rdf:resource="http://purl.org/dc/dcmitype/StillImage" /></cc:Work></rdf:RDF></metadata><defs
   id="defs79" />
<style
   id="style2"
   type="text/css">
	.st0{fill:#62B92C;stroke:#000000;stroke-width:1.5879;}
	.st1{fill:none;stroke:#000000;stroke-miterlimit:10;}
	.st2{fill:none;stroke:#66CC33;stroke-miterlimit:10;}
	.st3{fill:none;stroke:#000000;stroke-width:2;stroke-miterlimit:10;}
	.st4{fill:none;stroke:#66CC33;stroke-width:2;stroke-miterlimit:10;}
	.st5{fill:none;stroke:#000000;stroke-width:4;stroke-miterlimit:10;}
	.st6{fill:none;stroke:#66CC33;stroke-width:4;stroke-miterlimit:10;}
	.st7{fill:#62B92C;stroke:#000000;}
	.st8{fill:#62B92C;stroke:#000000;stroke-width:2;}
	.st9{fill:#62B92C;stroke:#000000;stroke-width:0.5;}
</style>
<sodipodi:namedview
   showgrid="false"
   pagecolor="#ffffff"
   objecttolerance="10"
   inkscape:zoom="2.2953957"
   inkscape:window-y="-8"
   inkscape:window-x="-8"
   inkscape:window-width="1920"
   inkscape:window-maximized="1"
   inkscape:window-height="1017"
   inkscape:pageshadow="2"
   inkscape:pageopacity="0"
   inkscape:document-rotation="0"
   inkscape:cy="68.182763"
   inkscape:cx="108.03385"
   inkscape:current-layer="svg4896"
   id="namedview4898"
   guidetolerance="10"
   gridtolerance="10"
   borderopacity="1"
   bordercolor="#666666">
	</sodipodi:namedview>
<g
   transform="translate(0.08627523,-15.747407)"
   id="g3290_3_">
	<path
   d="M143.1,91.3v8.7c-2.3-1-4.5-1.8-6.6-2.3c-2.2-0.5-4.2-0.8-6.1-0.8c-2.5,0-4.4,0.4-5.6,1.1   c-1.2,0.7-1.8,1.8-1.8,3.3c0,1.1,0.4,2,1.2,2.6s2.3,1.1,4.5,1.6l4.5,0.9c4.6,0.9,7.9,2.3,9.8,4.2s2.9,4.6,2.9,8   c0,4.6-1.4,7.9-4.1,10.2c-2.7,2.2-6.8,3.3-12.4,3.3c-2.6,0-5.2-0.2-7.9-0.7c-2.6-0.5-5.3-1.2-7.9-2.2v-9c2.6,1.4,5.2,2.5,7.6,3.2   c2.5,0.7,4.8,1.1,7.1,1.1s4.1-0.4,5.3-1.2c1.2-0.8,1.9-1.9,1.9-3.3c0-1.3-0.4-2.3-1.3-3c-0.8-0.7-2.5-1.3-5-1.9l-4.1-0.9   c-4.1-0.9-7.2-2.3-9.1-4.2c-1.9-1.9-2.8-4.5-2.8-7.8c0-4.1,1.3-7.3,4-9.5c2.7-2.2,6.5-3.3,11.4-3.3c2.3,0,4.6,0.2,7,0.5   C138,90.1,140.5,90.6,143.1,91.3z"
   id="path862_3_" />
	<path
   d="M212.4,90h10.7v33.2h18v8h-28.6V90H212.4z"
   sodipodi:nodetypes="ccccccc"
   id="path868_3_" />
	<path
   d="M265.1,99.7c-3.6,10.5-7.3,21.1-10.9,31.6h-10.7L258.8,90h12.7l15.3,41.3   h-10.7L265.1,99.7z"
   sodipodi:nodetypes="cccccccc"
   id="path870_3_" />
	<path
   d="M179.3,105.2c-0.3-0.8-1.1-1-1.4-1.1h-0.1   c-0.2-0.1-0.4-0.1-0.6-0.1h-12.3l5.8-19.1l0.1-0.1c0.4-1.2,0.2-2.1-0.7-2.6c-0.3-0.2-0.7-0.3-1-0.3c-0.9,0-1.4,0.6-1.7,0.9   l-0.1,0.2c-3.8,4.3-7.6,8.5-11.4,12.9l-6.6,7.4c-2.7,3.1-5.5,6.1-8.2,9.2c-0.5,0.5-0.8,1.5-0.6,2.3c0.3,0.8,1.1,1.1,1.5,1.2   l0.2,0.1c0.2,0.1,0.3,0.1,0.6,0.1h11.3l-4.4,17.6c-0.3,1.1-0.6,2.3-0.8,3.4c-0.1,0.8,0.4,1.7,0.9,2c0.3,0.2,0.6,0.3,0.9,0.3   s0.6-0.1,0.9-0.2c0.5-0.2,0.7-0.5,0.9-0.8l23.4-27.3c1-1.2,2.1-2.4,3-3.6C179.3,106.9,179.6,106,179.3,105.2L179.3,105.2z"
   class="st0"
   inkscape:connector-curvature="0"
   id="path5004_3_" />
	<path
   d="M176.2,90h17.7c5.3,0,9.3,1.2,12.1,3.5c2.8,2.3,4.2,5.6,4.2,10c0,4.3-1.4,7.7-4.2,10   c-2.8,2.3-6.8,3.5-12.1,3.5h-7v14.3h-10.6V90H176.2z M186.8,97.8v11.5h5.9c2.1,0,3.7-0.5,4.8-1.5c1.1-1,1.7-2.4,1.7-4.3   c0-1.8-0.6-3.3-1.7-4.3s-2.7-1.5-4.8-1.5L186.8,97.8L186.8,97.8z"
   id="path866_3_" />
</g>
<path
   id="path11"
   d="M-62.6,257.4h-20.3c-5.3,0-9.7,1.9-9.7,4.2v1.7c0,1.8,3.3,3.3,7.4,3.3l7.9,0.1c5,0.1,9,1.8,9,4v1.4  c0,1.9-3.6,3.5-8,3.5h-27.6"
   class="st1" />
<polyline
   id="polyline13"
   points="-51.4,278.8 -40.5,266.7 -53.6,266.7 -40.5,266.7 -53.6,266.7 -42.3,254.2 "
   class="st2" />
<path
   id="path15"
   d="M-27.4,275.6v-16.1c0-1.2,2.3-2.2,5-2.2h12.2c2.5,0,4.5,0.9,4.5,2v4.1c0,1.7-3.1,3-7,3h-9"
   class="st1" />
<path
   id="path17"
   d="M6.7,257.4v16.8c0,0.8,1.5,1.4,3.3,1.4h16.5"
   class="st1" />
<path
   id="path19"
   d="M36,275.6l11.7-17.3c0.9-1.3,4.5-1.3,5.4,0L63.8,274c0.6,0.9,2.4,1.6,4.3,1.6h3.8"
   class="st1" />
<path
   id="path21"
   d="M-62.6,207.6h-20.3c-5.3,0-9.7,1.9-9.7,4.2v1.7c0,1.8,3.3,3.3,7.4,3.3l7.9,0.1c5,0.1,9,1.8,9,4v1.4  c0,1.9-3.6,3.5-8,3.5h-27.6"
   class="st3" />
<polyline
   id="polyline23"
   points="-51.4,229 -40.5,216.9 -53.6,216.9 -40.5,216.9 -53.6,216.9 -42.3,204.4 "
   class="st4" />
<path
   id="path25"
   d="M-27.4,225.8v-16.1c0-1.2,2.3-2.2,5-2.2h12.2c2.5,0,4.5,0.9,4.5,2v4.1c0,1.7-3.1,3-7,3h-9"
   class="st3" />
<path
   id="path27"
   d="M6.7,207.6v16.8c0,0.8,1.5,1.4,3.3,1.4h16.5"
   class="st3" />
<path
   id="path29"
   d="M36,225.8l11.7-17.3c0.9-1.3,4.5-1.3,5.4,0l10.7,15.7c0.6,0.9,2.4,1.6,4.3,1.6h3.8"
   class="st3" />
<path
   id="path31"
   d="M150.7,153.1h-20.3c-5.3,0-9.7,1.9-9.7,4.2v1.7c0,1.8,3.3,3.3,7.4,3.3l7.9,0.1c5,0.1,9,1.8,9,4v1.4  c0,1.9-3.6,3.5-8,3.5h-27.6"
   class="st5" />
<path
   id="path33"
   d="M185.9,173.3v-16.1c0-1.2,2.3-2.2,5-2.2h12.2c2.5,0,4.5,0.9,4.5,2v4.1c0,1.7-3.1,3-7,3h-9"
   class="st5" />
<path
   id="path35"
   d="M220,153.1v16.8c0,0.8,1.5,1.4,3.3,1.4h16.5"
   class="st5" />
<path
   id="path37"
   d="M249.3,172.3L261,155c0.9-1.3,4.5-1.3,5.4,0l10.7,15.7c0.6,0.9,2.4,1.6,4.3,1.6h3.8"
   class="st5" />
<path
   id="path39"
   d="M-62.6,153.1h-20.3c-5.3,0-9.7,1.9-9.7,4.2v1.7c0,1.8,3.3,3.3,7.4,3.3l7.9,0.1c5,0.1,9,1.8,9,4v1.4  c0,1.9-3.6,3.5-8,3.5h-27.6"
   class="st5" />
<polyline
   id="polyline41"
   points="-51.4,174.5 -40.5,162.4 -53.6,162.4 -40.5,162.4 -53.6,162.4 -42.3,149.9 "
   class="st6" />
<path
   id="path43"
   d="M-27.4,171.3v-16.1c0-1.2,2.3-2.2,5-2.2h12.2c2.5,0,4.5,0.9,4.5,2v4.1c0,1.7-3.1,3-7,3h-9"
   class="st5" />
<path
   id="path45"
   d="M6.7,153.1v16.8c0,0.8,1.5,1.4,3.3,1.4h16.5"
   class="st5" />
<path
   id="path47"
   d="M36,171.3L47.7,154c0.9-1.3,4.5-1.3,5.4,0l10.7,15.7c0.6,0.9,2.4,1.6,4.3,1.6h3.8"
   class="st5" />
<path
   id="path49"
   d="M-63.6,80.6h-20.3c-5.3,0-9.7,3.2-9.7,7.2v2.9c0,3.1,3.3,5.6,7.4,5.7l7.9,0.2c5,0.1,9,3.2,9,6.9v2.3  c0,3.3-3.6,5.9-8,5.9h-27.6"
   class="st1" />
<polyline
   id="polyline51"
   points="-52.4,117.2 -41.5,96.4 -54.6,96.4 -41.5,96.4 -54.6,96.4 -43.3,75.1 "
   class="st1" />
<path
   id="path53"
   d="M-28.4,111.7V84.3c0-2.1,2.3-3.7,5-3.7h12.2c2.5,0,4.5,1.5,4.5,3.3V91c0,2.9-3.1,5.2-7,5.2h-9"
   class="st1" />
<path
   id="path55"
   d="M5.7,80.6v28.7c0,1.4,1.5,2.4,3.3,2.4h16.5"
   class="st1" />
<path
   id="path57"
   d="M36,111.7l11.7-29.5c0.9-2.2,4.5-2.2,5.4,0L63.8,109c0.6,1.6,2.4,2.7,4.3,2.7h3.8"
   class="st1" />
<path
   d="M176.5,159.3c-0.2-0.4-0.6-0.5-0.7-0.6h-0.1  c-0.1-0.1-0.2-0.1-0.3-0.1h-6.5l3.1-10.1l0.1-0.1c0.2-0.6,0.1-1.1-0.4-1.4c-0.2-0.1-0.4-0.2-0.5-0.2c-0.5,0-0.7,0.3-0.9,0.5  l-0.1,0.1c-2,2.3-4,4.5-6,6.8l-3.5,3.9c-1.4,1.6-2.9,3.2-4.3,4.9c-0.3,0.3-0.4,0.8-0.3,1.2c0.2,0.4,0.6,0.6,0.8,0.6l0.1,0.1  c0.1,0.1,0.2,0.1,0.3,0.1h6l-2.3,9.3c-0.2,0.6-0.3,1.2-0.4,1.8c-0.1,0.4,0.2,0.9,0.5,1.1c0.2,0.1,0.3,0.2,0.5,0.2  c0.2,0,0.3-0.1,0.5-0.1c0.3-0.1,0.4-0.3,0.5-0.4l12.4-14.4c0.5-0.6,1.1-1.3,1.6-1.9C176.5,160.2,176.6,159.7,176.5,159.3  L176.5,159.3z"
   class="st7"
   inkscape:connector-curvature="0"
   id="path5004_2_" />
<path
   inkscape:export-ydpi="467.02701"
   inkscape:export-xdpi="467.02701"
   inkscape:export-filename="D:\Barbosa\OneDrive\UFBA\LigaSEP\Projeto_Master_OpenDSS\SIPLA\img\logo.png"
   id="path60"
   d="M46.1,8H25.8c-5.3,0-9.7,1.9-9.7,4.2v1.7c0,1.8,3.3,3.3,7.4,3.3l7.9,0.1c5,0.1,9,1.8,9,4v1.4  c0,1.9-3.6,3.5-8,3.5H4.8"
   class="st5" />
<path
   id="path62"
   d="M81.3,28.2V12.1c0-1.2,2.3-2.2,5-2.2h12.2c2.5,0,4.5,0.9,4.5,2V16c0,1.7-3.1,3-7,3h-9"
   class="st5" />
<path
   id="path64"
   d="M115.4,8v16.8c0,0.8,1.5,1.4,3.3,1.4h16.5"
   class="st5" />
<path
   id="path66"
   d="M144.7,27.2l11.7-17.3c0.9-1.3,4.5-1.3,5.4,0l10.7,15.7c0.6,0.9,2.4,1.6,4.3,1.6h3.8"
   class="st5" />
<path
   d="M71.9,14.2c-0.2-0.4-0.6-0.5-0.7-0.6h-0.1  c-0.1-0.1-0.2-0.1-0.3-0.1h-6.5l3.1-10.1l0.1-0.1C67.6,2.8,67.5,2.3,67,2c-0.2-0.1-0.4-0.2-0.5-0.2c-0.5,0-0.7,0.3-0.9,0.5l-0.1,0.1  c-2,2.3-4,4.5-6,6.8L56,13.2c-1.4,1.6-2.9,3.2-4.3,4.9c-0.3,0.3-0.4,0.8-0.3,1.2c0.2,0.4,0.6,0.6,0.8,0.6l0.1,0.1  c0.1,0.1,0.2,0.1,0.3,0.1h6l-2.3,9.3c-0.2,0.6-0.3,1.2-0.4,1.8c-0.1,0.4,0.2,0.9,0.5,1.1c0.2,0.1,0.3,0.2,0.5,0.2s0.3-0.1,0.5-0.1  c0.3-0.1,0.4-0.3,0.5-0.4l12.4-14.4c0.5-0.6,1.1-1.3,1.6-1.9C71.9,15.1,72,14.6,71.9,14.2L71.9,14.2z"
   class="st8"
   inkscape:connector-curvature="0"
   id="path5004_4_" />
<path
   id="path69"
   d="M150.7,208.6h-20.3c-5.3,0-9.7,1.9-9.7,4.2v1.7c0,1.8,3.3,3.3,7.4,3.3l7.9,0.1c5,0.1,9,1.8,9,4v1.4  c0,1.9-3.6,3.5-8,3.5h-27.6"
   class="st5" />
<path
   id="path71"
   d="M185.9,228.8v-16.1c0-1.2,2.3-2.2,5-2.2h12.2c2.5,0,4.5,0.9,4.5,2v4.1c0,1.7-3.1,3-7,3h-9"
   class="st5" />
<path
   id="path73"
   d="M220,208.6v16.8c0,0.8,1.5,1.4,3.3,1.4h16.5"
   class="st5" />
<path
   id="path75"
   d="M249.3,227.8l11.7-17.3c0.9-1.3,4.5-1.3,5.4,0l10.7,15.7c0.6,0.9,2.4,1.6,4.3,1.6h3.8"
   class="st5" />
<path
   d="M176.5,213.8c-0.2-0.4-0.6-0.5-0.7-0.6h-0.1  c-0.1-0.1-0.2-0.1-0.3-0.1h-6.5l3.1-10.1l0.1-0.1c0.2-0.6,0.1-1.1-0.4-1.4c-0.2-0.1-0.4-0.2-0.5-0.2c-0.5,0-0.7,0.3-0.9,0.5  l-0.1,0.1c-2,2.3-4,4.5-6,6.8l-3.5,3.9c-1.4,1.6-2.9,3.2-4.3,4.9c-0.3,0.3-0.4,0.8-0.3,1.2c0.2,0.4,0.6,0.6,0.8,0.6l0.1,0.1  c0.1,0.1,0.2,0.1,0.3,0.1h6l-2.3,9.3c-0.2,0.6-0.3,1.2-0.4,1.8c-0.1,0.4,0.2,0.9,0.5,1.1c0.2,0.1,0.3,0.2,0.5,0.2  c0.2,0,0.3-0.1,0.5-0.1c0.3-0.1,0.4-0.3,0.5-0.4l12.4-14.4c0.5-0.6,1.1-1.3,1.6-1.9C176.5,214.7,176.6,214.3,176.5,213.8  L176.5,213.8z"
   class="st9"
   inkscape:connector-curvature="0"
   id="path5004_1_" />
<rect
   inkscape:export-ydpi="599.38196"
   inkscape:export-xdpi="599.38196"
   inkscape:export-filename="D:\Barbosa\OneDrive\UFBA\LigaSEP\Projeto_Master_OpenDSS\SIPLA\img\logo.png"
   ry="5.5449796"
   y="-50.93536"
   x="78.690277"
   height="30"
   width="30"
   id="rect924"
   style="fill:none;stroke:#62b92c;stroke-width:2.033;stroke-opacity:1;stroke-miterlimit:4;stroke-dasharray:none" /><path
   style="fill:none;stroke:#000000;stroke-width:2.8899;stroke-miterlimit:10"
   class="st5"
   d="M 108.60935,-42.509872 H 93.943138 c -3.829108,0 -7.007991,1.3727 -7.007991,3.034389 v 1.228205 c 0,1.300452 2.384162,2.384162 5.346303,2.384162 l 5.70754,0.07225 c 3.61237,0.07225 6.50226,1.300453 6.50226,2.889894 v 1.011464 c 0,1.372698 -2.6009,2.528656 -5.779786,2.528656 H 78.771197"
   id="path60-2"
   inkscape:export-filename="D:\Barbosa\OneDrive\UFBA\LigaSEP\Projeto_Master_OpenDSS\SIPLA\img\logo.png"
   inkscape:export-xdpi="599.38196"
   inkscape:export-ydpi="599.38196" /></svg>
