<?xml version="1.0" encoding="UTF-8" standalone="no"?>
<svg
   xmlns:dc="http://purl.org/dc/elements/1.1/"
   xmlns:cc="http://creativecommons.org/ns#"
   xmlns:rdf="http://www.w3.org/1999/02/22-rdf-syntax-ns#"
   xmlns:svg="http://www.w3.org/2000/svg"
   xmlns="http://www.w3.org/2000/svg"
   xmlns:sodipodi="http://sodipodi.sourceforge.net/DTD/sodipodi-0.dtd"
   xmlns:inkscape="http://www.inkscape.org/namespaces/inkscape"
   xml:space="preserve"
   viewBox="0 0 184.3 52.1"
   y="0px"
   x="0px"
   sodipodi:docname="Logo_SIPLA1.svg"
   inkscape:version="1.0.2 (e86c870879, 2021-01-15)"
   id="svg4896"
   version="1.1"
   width="184.3"
   height="52.099998"><metadata
   id="metadata81"><rdf:RDF><cc:Work
       rdf:about=""><dc:format>image/svg+xml</dc:format><dc:type
         rdf:resource="http://purl.org/dc/dcmitype/StillImage" /><dc:title></dc:title></cc:Work></rdf:RDF></metadata><defs
   id="defs79" />
<style
   id="style2"
   type="text/css">
	.st0{fill:#62B92C;stroke:#000000;stroke-width:1.5879;}
	.st1{fill:none;stroke:#000000;stroke-miterlimit:10;}
	.st2{fill:none;stroke:#66CC33;stroke-miterlimit:10;}
	.st3{fill:none;stroke:#000000;stroke-width:2;stroke-miterlimit:10;}
	.st4{fill:none;stroke:#66CC33;stroke-width:2;stroke-miterlimit:10;}
	.st5{fill:none;stroke:#000000;stroke-width:4;stroke-miterlimit:10;}
	.st6{fill:none;stroke:#66CC33;stroke-width:4;stroke-miterlimit:10;}
	.st7{fill:#62B92C;stroke:#000000;}
	.st8{fill:#62B92C;stroke:#000000;stroke-width:2;}
	.st9{fill:#62B92C;stroke:#000000;stroke-width:0.5;}
</style>
<sodipodi:namedview
   showgrid="false"
   pagecolor="#ffffff"
   objecttolerance="10"
   inkscape:zoom="6.4923595"
   inkscape:window-y="27"
   inkscape:window-x="1920"
   inkscape:window-width="1920"
   inkscape:window-maximized="1"
   inkscape:window-height="1016"
   inkscape:pageshadow="2"
   inkscape:pageopacity="0"
   inkscape:document-rotation="0"
   inkscape:cy="20.699492"
   inkscape:cx="92.150002"
   inkscape:current-layer="svg4896"
   id="namedview4898"
   guidetolerance="10"
   gridtolerance="10"
   borderopacity="1"
   bordercolor="#666666">
	</sodipodi:namedview>






























<g
   id="g21"
   transform="translate(-0.54999847)"><path
     inkscape:export-ydpi="467.02701"
     inkscape:export-xdpi="467.02701"
     inkscape:export-filename="D:\Barbosa\OneDrive\UFBA\LigaSEP\Projeto_Master_OpenDSS\SIPLA\img\logo.png"
     id="path60"
     d="M 46.1,8 H 25.8 c -5.3,0 -9.7,1.9 -9.7,4.2 v 1.7 c 0,1.8 3.3,3.3 7.4,3.3 l 7.9,0.1 c 5,0.1 9,1.8 9,4 v 1.4 c 0,1.9 -3.6,3.5 -8,3.5 H 4.8"
     class="st5" /><path
     id="path62"
     d="M 81.3,28.2 V 12.1 c 0,-1.2 2.3,-2.2 5,-2.2 h 12.2 c 2.5,0 4.5,0.9 4.5,2 V 16 c 0,1.7 -3.1,3 -7,3 h -9"
     class="st5" /><path
     id="path64"
     d="m 115.4,8 v 16.8 c 0,0.8 1.5,1.4 3.3,1.4 h 16.5"
     class="st5" /><path
     id="path66"
     d="M 144.7,27.2 156.4,9.9 c 0.9,-1.3 4.5,-1.3 5.4,0 l 10.7,15.7 c 0.6,0.9 2.4,1.6 4.3,1.6 h 3.8"
     class="st5" /><path
     d="M 71.9,14.2 C 71.7,13.8 71.3,13.7 71.2,13.6 H 71.1 C 71,13.5 70.9,13.5 70.8,13.5 H 64.3 L 67.4,3.4 67.5,3.3 C 67.6,2.8 67.5,2.3 67,2 66.8,1.9 66.6,1.8 66.5,1.8 66,1.8 65.8,2.1 65.6,2.3 l -0.1,0.1 c -2,2.3 -4,4.5 -6,6.8 l -3.5,4 c -1.4,1.6 -2.9,3.2 -4.3,4.9 -0.3,0.3 -0.4,0.8 -0.3,1.2 0.2,0.4 0.6,0.6 0.8,0.6 l 0.1,0.1 c 0.1,0.1 0.2,0.1 0.3,0.1 h 6 l -2.3,9.3 c -0.2,0.6 -0.3,1.2 -0.4,1.8 -0.1,0.4 0.2,0.9 0.5,1.1 0.2,0.1 0.3,0.2 0.5,0.2 0.2,0 0.3,-0.1 0.5,-0.1 0.3,-0.1 0.4,-0.3 0.5,-0.4 L 70.3,17.6 c 0.5,-0.6 1.1,-1.3 1.6,-1.9 0,-0.6 0.1,-1.1 0,-1.5 z"
     class="st8"
     inkscape:connector-curvature="0"
     id="path5004_4_" /></g>





<text
   xml:space="preserve"
   style="font-style:normal;font-weight:normal;font-size:10.9333px;line-height:1.25;font-family:sans-serif;fill:#000000;fill-opacity:1;stroke:none"
   x="2.3987105"
   y="44.786549"
   id="text14"><tspan
     sodipodi:role="line"
     id="tspan12"
     x="2.3987105"
     y="44.786549"
     style="font-style:normal;font-variant:normal;font-weight:bold;font-stretch:normal;font-size:10.9333px;font-family:'Viner Hand ITC';-inkscape-font-specification:'Viner Hand ITC Bold'">Sistema Integrado de Planejamento</tspan></text></svg>
