<?xml version="1.0" encoding="UTF-8" standalone="no"?>
<svg
   xmlns:dc="http://purl.org/dc/elements/1.1/"
   xmlns:cc="http://creativecommons.org/ns#"
   xmlns:rdf="http://www.w3.org/1999/02/22-rdf-syntax-ns#"
   xmlns:svg="http://www.w3.org/2000/svg"
   xmlns="http://www.w3.org/2000/svg"
   xmlns:sodipodi="http://sodipodi.sourceforge.net/DTD/sodipodi-0.dtd"
   xmlns:inkscape="http://www.inkscape.org/namespaces/inkscape"
   xml:space="preserve"
   style="enable-background:new 0 0 184.3 34.1;"
   viewBox="0 0 184.3 34.1"
   y="0px"
   x="0px"
   sodipodi:docname="Logo_SIPLA.svg"
   inkscape:version="1.0 (4035a4fb49, 2020-05-01)"
   id="svg4896"
   version="1.1"><metadata
   id="metadata81"><rdf:RDF><cc:Work
       rdf:about=""><dc:format>image/svg+xml</dc:format><dc:type
         rdf:resource="http://purl.org/dc/dcmitype/StillImage" /><dc:title></dc:title></cc:Work></rdf:RDF></metadata><defs
   id="defs79" />
<style
   id="style2"
   type="text/css">
	.st0{fill:#62B92C;stroke:#000000;stroke-width:1.5879;}
	.st1{fill:none;stroke:#000000;stroke-miterlimit:10;}
	.st2{fill:none;stroke:#66CC33;stroke-miterlimit:10;}
	.st3{fill:none;stroke:#000000;stroke-width:2;stroke-miterlimit:10;}
	.st4{fill:none;stroke:#66CC33;stroke-width:2;stroke-miterlimit:10;}
	.st5{fill:none;stroke:#000000;stroke-width:4;stroke-miterlimit:10;}
	.st6{fill:none;stroke:#66CC33;stroke-width:4;stroke-miterlimit:10;}
	.st7{fill:#62B92C;stroke:#000000;}
	.st8{fill:#62B92C;stroke:#000000;stroke-width:2;}
	.st9{fill:#62B92C;stroke:#000000;stroke-width:0.5;}
</style>
<sodipodi:namedview
   showgrid="false"
   pagecolor="#ffffff"
   objecttolerance="10"
   inkscape:zoom="2.2953957"
   inkscape:window-y="-8"
   inkscape:window-x="-8"
   inkscape:window-width="1920"
   inkscape:window-maximized="1"
   inkscape:window-height="1017"
   inkscape:pageshadow="2"
   inkscape:pageopacity="0"
   inkscape:document-rotation="0"
   inkscape:cy="38.770622"
   inkscape:cx="108.03385"
   inkscape:current-layer="svg4896"
   id="namedview4898"
   guidetolerance="10"
   gridtolerance="10"
   borderopacity="1"
   bordercolor="#666666">
	</sodipodi:namedview>


























<path
   inkscape:export-ydpi="467.02701"
   inkscape:export-xdpi="467.02701"
   inkscape:export-filename="D:\Barbosa\OneDrive\UFBA\LigaSEP\Projeto_Master_OpenDSS\SIPLA\img\logo.png"
   id="path60"
   d="M46.1,8H25.8c-5.3,0-9.7,1.9-9.7,4.2v1.7c0,1.8,3.3,3.3,7.4,3.3l7.9,0.1c5,0.1,9,1.8,9,4v1.4  c0,1.9-3.6,3.5-8,3.5H4.8"
   class="st5" />
<path
   id="path62"
   d="M81.3,28.2V12.1c0-1.2,2.3-2.2,5-2.2h12.2c2.5,0,4.5,0.9,4.5,2V16c0,1.7-3.1,3-7,3h-9"
   class="st5" />
<path
   id="path64"
   d="M115.4,8v16.8c0,0.8,1.5,1.4,3.3,1.4h16.5"
   class="st5" />
<path
   id="path66"
   d="M144.7,27.2l11.7-17.3c0.9-1.3,4.5-1.3,5.4,0l10.7,15.7c0.6,0.9,2.4,1.6,4.3,1.6h3.8"
   class="st5" />
<path
   d="M71.9,14.2c-0.2-0.4-0.6-0.5-0.7-0.6h-0.1  c-0.1-0.1-0.2-0.1-0.3-0.1h-6.5l3.1-10.1l0.1-0.1C67.6,2.8,67.5,2.3,67,2c-0.2-0.1-0.4-0.2-0.5-0.2c-0.5,0-0.7,0.3-0.9,0.5l-0.1,0.1  c-2,2.3-4,4.5-6,6.8L56,13.2c-1.4,1.6-2.9,3.2-4.3,4.9c-0.3,0.3-0.4,0.8-0.3,1.2c0.2,0.4,0.6,0.6,0.8,0.6l0.1,0.1  c0.1,0.1,0.2,0.1,0.3,0.1h6l-2.3,9.3c-0.2,0.6-0.3,1.2-0.4,1.8c-0.1,0.4,0.2,0.9,0.5,1.1c0.2,0.1,0.3,0.2,0.5,0.2s0.3-0.1,0.5-0.1  c0.3-0.1,0.4-0.3,0.5-0.4l12.4-14.4c0.5-0.6,1.1-1.3,1.6-1.9C71.9,15.1,72,14.6,71.9,14.2L71.9,14.2z"
   class="st8"
   inkscape:connector-curvature="0"
   id="path5004_4_" />





</svg>
